<svg width="24" height="24" viewBox="0 0 24 24" fill="none" xmlns="http://www.w3.org/2000/svg">
<path d="M3.375 9.54041L10.875 8.04041V17.8686H10.8771C10.8757 17.9125 10.875 17.9564 10.875 18.0006C10.875 20.6159 13.146 22.7436 15.9375 22.7436C18.729 22.7436 21 20.6159 21 18.0006C21 15.3852 18.729 13.2575 15.9375 13.2575C14.6188 13.2502 13.3462 13.7419 12.375 14.634V1.33569L3.375 3.13569V9.54041ZM15.9375 14.7576C17.9018 14.7576 19.5 16.2125 19.5 18.0007C19.5 19.7889 17.9018 21.2438 15.9375 21.2438C13.9732 21.2438 12.375 19.7888 12.375 18.0006C12.375 16.2123 13.9732 14.7575 15.9375 14.7575V14.7576ZM4.875 4.36541L10.875 3.16541V6.51069L4.875 7.71069V4.36541Z" fill="white"/>
</svg>
